<?xml version="1.0" encoding="utf-8"?>
<!-- Generator: Adobe Illustrator 25.4.1, SVG Export Plug-In . SVG Version: 6.00 Build 0)  -->
<svg version="1.1" id="Layer_1" xmlns="http://www.w3.org/2000/svg" xmlns:xlink="http://www.w3.org/1999/xlink" x="0px" y="0px"
	 viewBox="0 0 100 100" style="enable-background:new 0 0 100 100;" xml:space="preserve">
<style type="text/css">
	.st0{fill:#FFFFFF;}
</style>
<g>
	<g>
		<path class="st0" d="M84.2,81.3H15.8c-4.5,0-8.1-3.6-8.1-8.1V26.9c0-4.5,3.6-8.1,8.1-8.1h68.4c4.5,0,8.1,3.6,8.1,8.1v46.3
			C92.3,77.6,88.7,81.3,84.2,81.3z M15.8,22.4c-2.5,0-4.4,2-4.4,4.4v46.3c0,2.5,2,4.4,4.4,4.4h68.4c2.5,0,4.4-2,4.4-4.4V26.9
			c0-2.5-2-4.4-4.4-4.4H15.8V22.4z"/>
	</g>
	<g>
		<g>
			<path class="st0" d="M50,58.7c-4.8,0-8.7-3.9-8.7-8.7s3.9-8.7,8.7-8.7s8.7,3.9,8.7,8.7S54.8,58.7,50,58.7z M50,44.9
				c-2.8,0-5.1,2.3-5.1,5.1s2.3,5.1,5.1,5.1s5.1-2.3,5.1-5.1S52.8,44.9,50,44.9z"/>
		</g>
		<g>
			<path class="st0" d="M69.8,67.7c-0.9,0-1.6-0.1-2.1-0.2c-4.3-0.9-12.6-9.6-14.2-11.3c-0.7-0.7-0.7-1.9,0-2.6c1-1,1.5-2.2,1.5-3.6
				s-0.5-2.6-1.5-3.6c-0.7-0.7-0.7-1.8,0-2.6c1.6-1.7,9.8-10.4,14.2-11.3c1.2-0.3,4.3-0.6,6.7,1.3c1.1,0.9,2.4,2.7,2.4,5.9
				c0,4.4-2.3,8.4-3.6,10.3c1.3,1.9,3.6,5.9,3.6,10.3c0,3.2-1.3,5-2.4,5.9C72.9,67.3,71.2,67.7,69.8,67.7z M57.3,54.8
				c3.7,3.8,9,8.6,11.2,9.1c1.1,0.2,2.7,0.2,3.6-0.5c0.7-0.6,1.1-1.6,1.1-3c0-4.6-3.5-9.1-3.6-9.1c-0.5-0.7-0.5-1.6,0-2.3
				c0,0,3.6-4.5,3.6-9.1c0-1.4-0.4-2.5-1.1-3c-0.9-0.8-2.5-0.8-3.6-0.5c-2.1,0.5-7.4,5.2-11.2,9.1c0.9,1.4,1.4,3.1,1.4,4.8
				S58.2,53.4,57.3,54.8z"/>
		</g>
		<g>
			<path class="st0" d="M30.2,67.7c-1.4,0-3.1-0.3-4.6-1.5c-1.1-0.9-2.4-2.7-2.4-5.9c0-4.4,2.3-8.4,3.6-10.3
				c-1.3-1.9-3.6-5.9-3.6-10.3c0-3.2,1.3-5,2.4-5.9c2.4-1.9,5.5-1.5,6.7-1.3c4.3,0.9,12.6,9.6,14.2,11.3c0.7,0.7,0.7,1.9,0,2.6
				c-1,1-1.5,2.2-1.5,3.6s0.5,2.6,1.5,3.6c0.7,0.7,0.7,1.8,0,2.6c-1.6,1.7-9.8,10.4-14.2,11.3C31.8,67.5,31.1,67.7,30.2,67.7z
				 M30.3,36c-0.8,0-1.7,0.2-2.3,0.7c-0.7,0.6-1.1,1.6-1.1,3c0,4.6,3.5,9.1,3.6,9.1c0.5,0.7,0.5,1.6,0,2.3c0,0-3.6,4.5-3.6,9.1
				c0,1.4,0.4,2.5,1.1,3c0.9,0.8,2.5,0.8,3.6,0.5c2.1-0.5,7.4-5.2,11.2-9.1c-0.9-1.4-1.4-3.1-1.4-4.8s0.5-3.4,1.4-4.8
				c-3.7-3.8-9-8.6-11.2-9.1C31.1,36.1,30.7,36,30.3,36z"/>
		</g>
	</g>
	<g>
		<path class="st0" d="M90.5,55.4h-6.2c-1,0-1.8-0.8-1.8-1.8s0.8-1.8,1.8-1.8h4.4v-3.5H73.2c-1,0-1.8-0.8-1.8-1.8s0.8-1.8,1.8-1.8
			h17.2c1,0,1.8,0.8,1.8,1.8v7.2C92.3,54.6,91.5,55.4,90.5,55.4z"/>
	</g>
	<g>
		<path class="st0" d="M26.8,55.4H9.5c-1,0-1.8-0.8-1.8-1.8v-7.2c0-1,0.8-1.8,1.8-1.8h8.4c1,0,1.8,0.8,1.8,1.8s-0.8,1.8-1.8,1.8
			h-6.6v3.5h15.4c1,0,1.8,0.8,1.8,1.8C28.6,54.6,27.8,55.4,26.8,55.4z"/>
	</g>
	<g>
		<path class="st0" d="M53.6,46c-1,0-1.8-0.8-1.8-1.8V22.4h-3.5v12.4c0,1-0.8,1.8-1.8,1.8s-1.8-0.8-1.8-1.8V20.6
			c0-1,0.8-1.8,1.8-1.8h7.2c1,0,1.8,0.8,1.8,1.8v23.5C55.4,45.1,54.6,46,53.6,46z"/>
	</g>
	<g>
		<path class="st0" d="M53.6,81.3h-7.2c-1,0-1.8-0.8-1.8-1.8V55.9c0-1,0.8-1.8,1.8-1.8s1.8,0.8,1.8,1.8v21.7h3.5V65.8
			c0-1,0.8-1.8,1.8-1.8s1.8,0.8,1.8,1.8v13.6C55.4,80.4,54.6,81.3,53.6,81.3z"/>
	</g>
</g>
</svg>
