<?xml version="1.0" encoding="utf-8"?>
<!-- Generator: Adobe Illustrator 25.2.1, SVG Export Plug-In . SVG Version: 6.00 Build 0)  -->
<svg version="1.1" id="Layer_1" xmlns="http://www.w3.org/2000/svg" xmlns:xlink="http://www.w3.org/1999/xlink" x="0px" y="0px"
	 viewBox="0 0 512 512" style="enable-background:new 0 0 512 512;" xml:space="preserve">
<style type="text/css">
	.st0{fill:#FFFFFF;}
</style>
<g id="D_-_11_x2C__Agreement_x2C__report_x2C__form_x2C__layout_x2C__paper">
	<g>
		<path class="st0" d="M391,244.6C391,244.6,391,244.6,391,244.6L297.9,361l-15,52.7l44.9-30.1l55.7-78.9c0,0,0,0,0,0l19-26.9
			c0,0,0-0.1,0.1-0.1l26.6-36l-22.4-16.9L391,244.6z"/>
		<path class="st0" d="M56.6,434.3c0,7.3,5.8,13.4,12.9,13.7c0.2,0,0.4,0,0.6-0.1c0.2,0,0.4,0,0.6-0.1c0.2,0,0.4-0.1,0.6-0.1
			c0.2,0,0.4-0.1,0.6-0.1c0.2-0.1,0.4-0.1,0.5-0.2c0.2-0.1,0.4-0.1,0.6-0.2c0.2-0.1,0.3-0.1,0.5-0.2c0.2-0.1,0.4-0.2,0.6-0.3
			c0.2-0.1,0.3-0.2,0.5-0.3c0.2-0.1,0.4-0.2,0.6-0.4c0.2-0.1,0.3-0.2,0.5-0.3c0.2-0.1,0.4-0.3,0.6-0.4c0.1-0.1,0.3-0.2,0.4-0.3
			c0.2-0.1,0.4-0.3,0.6-0.5c0.1-0.1,0.3-0.3,0.4-0.4c0.2-0.2,0.4-0.3,0.5-0.5c0.1-0.1,0.3-0.3,0.4-0.4c0.2-0.2,0.3-0.3,0.5-0.5
			c0.1-0.2,0.3-0.3,0.4-0.5c0.1-0.2,0.3-0.3,0.4-0.5c0.1-0.2,0.3-0.4,0.4-0.6c0.1-0.2,0.2-0.3,0.3-0.5c0.1-0.2,0.2-0.4,0.4-0.6
			c0.1-0.2,0.2-0.3,0.3-0.5c0.1-0.3,0.3-0.6,0.4-0.9c0-0.1,0.1-0.2,0.1-0.3c0.2-0.4,0.3-0.8,0.4-1.2c0-0.1,0.1-0.3,0.1-0.4
			c0.1-0.3,0.1-0.5,0.2-0.8c0-0.2,0-0.3,0.1-0.5c0-0.2,0.1-0.5,0.1-0.8l0-0.1c0-0.3,0-0.5,0-0.8V110.8H54.7L56.6,434.3z"/>
		<polygon class="st0" points="335.8,69.2 335.8,101.4 374.4,101.4 		"/>
		<path class="st0" d="M333.8,390.8l-56.2,37.7c0,0,0,0,0,0l0,0c0,0,0,0-0.1,0c-0.2,0.1-0.3,0.2-0.5,0.3c0,0,0,0-0.1,0
			c0,0-0.1,0-0.1,0c-0.1,0.1-0.3,0.1-0.4,0.2c0,0-0.1,0-0.1,0c0,0-0.1,0-0.1,0c-0.1,0-0.3,0.1-0.4,0.1c-0.1,0-0.1,0-0.2,0
			c0,0,0,0,0,0c-0.2,0-0.4,0-0.6,0c0,0,0,0-0.1,0c-0.1,0-0.1,0-0.2,0c-0.1,0-0.3,0-0.4,0c0,0,0,0,0,0c-0.1,0-0.1,0-0.2-0.1
			c-0.1,0-0.3-0.1-0.4-0.1c0,0,0,0-0.1,0c-0.1,0-0.2-0.1-0.2-0.1c-0.1,0-0.3-0.1-0.4-0.2c0,0,0,0-0.1,0c-0.1,0-0.2-0.1-0.2-0.1
			c-0.1-0.1-0.2-0.1-0.3-0.2c-0.3-0.2-26.1-17.4-42.1-9.3c-4.4,2.2-9.6,3.1-15.1,3.1c-20.2,0-44.1-11.8-45.3-12.4
			c-2.3-1.2-3.3-4-2.1-6.3c1.2-2.3,4-3.3,6.3-2.1c9.9,4.9,38.4,16.2,52,9.4c15.8-7.9,36.4,1.3,46.1,6.7l17.1-60
			c0.1-0.4,0.3-0.7,0.4-1c0.1-0.2,0.2-0.4,0.4-0.6L382.7,240V110.8h-51.5c-2.6,0-4.7-2.1-4.7-4.7V63.9H92.2v42.2v328
			c0,0.4,0,0.8-0.1,1.3c0,0,0,0,0,0l0,0.2c0,0,0,0.1,0,0.1c0,0.5-0.1,1-0.2,1.5c0,0.1,0,0.2,0,0.3c-0.1,0.5-0.2,1-0.3,1.4
			c0,0.1,0,0.2-0.1,0.3c-0.1,0.4-0.2,0.9-0.4,1.3c0,0.1,0,0.1-0.1,0.2c-0.2,0.5-0.3,0.9-0.5,1.4c0,0.1-0.1,0.2-0.1,0.3
			c-0.2,0.5-0.4,0.9-0.6,1.4c0,0,0,0.1-0.1,0.1c-0.2,0.4-0.4,0.8-0.7,1.2c0,0.1-0.1,0.2-0.1,0.3c-0.3,0.4-0.5,0.8-0.8,1.3
			c-0.1,0.1-0.1,0.2-0.2,0.2c-0.3,0.4-0.6,0.8-0.9,1.2c0,0,0,0.1-0.1,0.1h295.7v-126L335,389.6C334.6,390.1,334.2,390.5,333.8,390.8
			z M237.4,87.3h18.7v18.7h-18.7L237.4,87.3L237.4,87.3z M199.9,87.3h18.7v18.7h-18.7V87.3z M162.5,87.3h18.7v18.7h-18.7V87.3z
			 M125,87.3h18.7v18.7H125V87.3z M125,129.5h178c2.6,0,4.7,2.1,4.7,4.7s-2.1,4.7-4.7,4.7H125c-2.6,0-4.7-2.1-4.7-4.7
			C120.3,131.6,122.4,129.5,125,129.5z M125,157.6h206.2c2.6,0,4.7,2.1,4.7,4.7s-2.1,4.7-4.7,4.7H125c-2.6,0-4.7-2.1-4.7-4.7
			C120.3,159.7,122.4,157.6,125,157.6z M125,185.7h159.3c2.6,0,4.7,2.1,4.7,4.7c0,2.6-2.1,4.7-4.7,4.7H125c-2.6,0-4.7-2.1-4.7-4.7
			C120.3,187.8,122.4,185.7,125,185.7z M125,213.8h140.6c2.6,0,4.7,2.1,4.7,4.7c0,2.6-2.1,4.7-4.7,4.7H125c-2.6,0-4.7-2.1-4.7-4.7
			C120.3,215.9,122.4,213.8,125,213.8z M125,241.9h112.5c2.6,0,4.7,2.1,4.7,4.7c0,2.6-2.1,4.7-4.7,4.7H125c-2.6,0-4.7-2.1-4.7-4.7
			C120.3,244,122.4,241.9,125,241.9z M125,270.1h159.3c2.6,0,4.7,2.1,4.7,4.7s-2.1,4.7-4.7,4.7H125c-2.6,0-4.7-2.1-4.7-4.7
			S122.4,270.1,125,270.1z M120.3,302.9c0-2.6,2.1-4.7,4.7-4.7h159.3c2.6,0,4.7,2.1,4.7,4.7s-2.1,4.7-4.7,4.7H125
			C122.4,307.5,120.3,305.4,120.3,302.9z"/>
		<polygon class="st0" points="434.8,187.3 412.6,217.3 421.4,224 434.8,234.2 457.3,204.1 		"/>
	</g>
</g>
<g id="Layer_1_1_">
</g>
</svg>
